<?xml version="1.0"?>
<svg xmlns="http://www.w3.org/2000/svg" xmlns:xlink="http://www.w3.org/1999/xlink" xmlns:svgjs="http://svgjs.com/svgjs" version="1.1" width="512" height="512" x="0" y="0" viewBox="0 0 497 497" style="enable-background:new 0 0 512 512" xml:space="preserve" class=""><g><g xmlns="http://www.w3.org/2000/svg"><path d="m467 203.113h22.5c4.142 0 7.5-3.358 7.5-7.5v-37.5l-90-30z" fill="#810f24" data-original="#0f4c81" class=""/><path d="m0 158.113v37.5c0 4.142 3.358 7.5 7.5 7.5h459.5v-75h-437z" fill="#972481" data-original="#2d6aab" class=""/><path d="m377 38.113 90 120h30c0-66.275-53.726-120-120-120z" fill="#cd54b5" data-original="#4b88d5" class=""/><path d="m377 38.113h-257c-66.274 0-120 53.726-120 120h467c0-66.275-40.294-120-90-120z" fill="#ff69e1" data-original="#69a7ff" class=""/><path d="m165 83.113h167v60h-167z" fill="#972481" data-original="#2d6aab" class=""/><path d="m377 353.887v105h30c16.57 0 30-13.43 30-30v-75z" fill="#810f24" data-original="#0f4c81" class=""/><path d="m60 353.887v75c0 16.57 13.43 30 30 30h287c16.57 0 30-13.43 30-30v-75z" fill="#972481" data-original="#2d6aab" class=""/><path d="m419 249.613-30-22.5c-7.554-5.666-12-14.557-12-24h-30l60 180.775c16.569 0 30-13.431 30-30v-68.275c0-14.164-6.669-27.502-18-36z" fill="#972481" data-original="#2d6aab" class=""/><path d="m398 249.613-15-22.5c-3.777-5.666-6-14.557-6-24v-60c0-16.569-13.431-30-30-30v-30c0-8.284-6.716-15-15-15s-15 6.716-15 15v30h-137v-30c0-8.284-6.716-15-15-15s-15 6.716-15 15v30c-16.569 0-30 13.431-30 30v60c0 9.443-4.446 18.334-12 24l-30 22.5c-11.331 8.498-18 21.836-18 36v68.275c0 16.569 13.431 30 30 30h317v-98.275c0-14.164-3.334-27.502-9-36z" fill="#cd54b5" data-original="#4b88d5" class=""/><circle cx="248.5" cy="248.113" fill="#810f24" r="105" data-original="#0f4c81" class=""/><circle cx="248.5" cy="248.113" fill="#972481" r="75" data-original="#2d6aab" class=""/><path d="m248.5 203.113v90c24.853 0 45-20.147 45-45s-20.147-45-45-45z" fill="#b5e926" data-original="#fcd72b" class=""/><path d="m263.5 248.113c0-24.853-6.716-45-15-45-24.853 0-45 20.147-45 45s20.147 45 45 45c8.284 0 15-20.148 15-45z" fill="#cfff4a" data-original="#fff04a" class=""/></g></g></svg>
